<?xml version="1.0" encoding="UTF-8" standalone="no"?>
<!DOCTYPE svg PUBLIC "-//W3C//DTD SVG 1.1//EN" "http://www.w3.org/Graphics/SVG/1.1/DTD/svg11.dtd">
<svg xmlns="http://www.w3.org/2000/svg" version="1.1" viewBox="0 0 432 108" width="432.0pt" height="108.0pt">
<path d="M 0.00 0.00 L 432.00 0.00 L 432.00 108.00 L 0.00 108.00 L 0.00 0.00 Z" fill="#ffffff" />
<path d="M 361.90 7.07 C 365.11 9.83 367.66 13.37 370.60 16.43 C 372.92 19.06 375.98 21.72 377.40 24.95 C 378.54 28.45 377.04 31.00 375.61 34.06 C 376.25 34.36 376.89 34.67 377.53 34.98 C 382.37 26.94 386.95 18.76 391.64 10.64 C 392.96 8.64 394.21 6.22 397.06 6.83 C 401.23 7.96 405.01 11.02 407.77 14.27 C 409.61 16.51 410.77 19.94 408.17 22.12 C 401.44 28.48 394.40 34.57 387.54 40.80 C 393.58 44.34 399.68 47.78 405.78 51.22 C 407.51 52.43 409.82 53.53 409.25 56.05 C 408.50 59.84 405.64 63.32 402.96 65.98 C 400.84 68.02 398.37 69.46 395.34 68.61 C 392.10 66.41 389.73 62.80 386.99 60.01 C 384.16 56.77 380.03 53.26 378.71 49.09 C 377.87 45.51 381.93 42.81 379.43 39.65 C 374.23 48.11 369.53 56.89 364.42 65.42 C 363.76 66.45 363.07 67.44 362.18 68.28 C 358.52 69.03 355.70 67.18 352.98 65.02 C 350.47 62.94 347.67 60.27 346.76 57.04 C 346.20 54.79 348.38 53.19 349.77 51.77 C 356.26 46.11 362.53 40.21 369.01 34.53 C 362.58 30.69 355.96 27.13 349.57 23.23 C 347.46 21.90 347.04 20.71 347.58 18.25 C 348.88 14.27 351.89 10.72 355.10 8.10 C 356.87 6.70 359.91 5.34 361.90 7.07 Z" fill="#d03037" />
<path d="M 359.46 9.76 C 363.99 14.81 368.90 19.65 373.07 25.00 C 374.92 27.40 373.21 29.67 372.52 32.13 C 365.20 27.91 357.56 24.07 350.58 19.31 C 353.16 15.62 355.43 12.04 359.46 9.76 Z" fill="#fbfdfc" />
<path d="M 396.71 10.08 C 400.51 12.32 403.66 15.21 406.39 18.64 C 399.18 25.62 391.49 32.12 384.08 38.90 C 383.03 38.23 381.98 37.58 380.93 36.92 C 386.12 27.97 390.84 18.61 396.71 10.08 Z" fill="#fcfcfc" />
<path d="M 372.39 36.49 C 373.51 37.09 374.63 37.68 375.75 38.28 C 370.58 47.29 365.55 56.41 360.11 65.25 C 356.18 62.90 353.06 60.32 350.03 56.89 C 357.16 49.77 364.97 43.32 372.39 36.49 Z" fill="#fdfdfc" />
<path d="M 125.79 38.29 C 129.98 38.28 134.17 38.30 138.36 38.22 C 138.38 56.76 138.36 75.29 138.38 93.83 C 134.19 93.78 130.00 93.78 125.81 93.78 C 125.81 92.90 125.82 92.03 125.82 91.16 C 129.45 91.52 133.09 91.81 136.73 92.01 C 137.08 84.45 136.70 76.92 136.64 69.36 C 136.84 59.72 136.96 50.08 136.76 40.43 C 133.12 40.65 129.49 40.73 125.85 40.57 L 125.79 38.29 Z" fill="#016e3c" />
<path d="M 242.04 38.34 C 246.20 38.26 250.37 38.29 254.53 38.25 C 254.52 56.77 254.53 75.28 254.52 93.80 L 253.00 93.80 C 252.54 80.87 252.94 67.93 252.82 55.00 C 252.64 50.56 252.76 45.39 250.99 41.24 C 248.26 40.07 245.01 39.89 242.09 39.34 L 242.04 38.34 Z" fill="#016e3c" />
<path d="M 149.40 39.52 C 151.76 38.46 154.43 38.92 156.44 40.49 C 160.00 43.00 159.59 49.69 155.53 51.56 C 152.93 53.09 149.57 52.68 147.40 50.59 C 143.89 47.59 144.91 41.06 149.40 39.52 Z" fill="#016d39" />
<path d="M 242.09 39.34 C 245.01 39.89 248.26 40.07 250.99 41.24 C 252.76 45.39 252.64 50.56 252.82 55.00 C 252.94 67.93 252.54 80.87 253.00 93.80 C 249.26 93.79 245.52 93.81 241.79 93.70 C 242.01 89.80 242.20 85.91 242.15 82.00 C 242.09 67.78 242.22 53.56 242.09 39.34 Z" fill="#016f3e" />
<path d="M 265.48 39.57 C 270.72 37.07 276.76 42.45 274.77 47.89 C 273.32 52.67 266.99 53.91 263.49 50.55 C 259.97 47.57 261.17 41.15 265.48 39.57 Z" fill="#026c39" />
<path d="M 125.85 40.57 C 129.49 40.73 133.12 40.65 136.76 40.43 C 136.96 50.08 136.84 59.72 136.64 69.36 C 136.70 76.92 137.08 84.45 136.73 92.01 C 133.09 91.81 129.45 91.52 125.82 91.16 C 125.84 74.30 125.84 57.43 125.85 40.57 Z" fill="#016f3d" />
<path d="M 384.26 43.24 C 391.44 47.51 398.97 51.21 405.93 55.81 C 403.55 59.78 400.95 62.80 397.40 65.76 C 393.09 61.32 388.98 56.71 384.89 52.08 C 383.94 50.90 382.63 49.55 382.37 48.03 C 382.54 46.35 383.59 44.78 384.26 43.24 Z" fill="#fcfdfc" />
<path d="M 171.74 48.39 C 175.92 47.98 180.19 48.23 184.39 48.28 C 180.32 48.77 176.23 48.96 172.15 49.37 C 171.67 53.56 172.00 56.73 173.60 60.63 C 173.71 57.08 173.54 53.55 173.24 50.02 C 176.04 50.01 178.98 49.87 181.74 50.37 C 183.47 52.48 182.60 56.74 182.83 59.39 C 185.18 61.51 187.52 63.64 189.84 65.80 C 187.67 66.54 185.36 67.17 183.33 68.26 C 182.09 75.96 183.26 84.06 182.75 91.87 C 179.56 91.86 176.36 91.86 173.16 91.88 C 172.85 83.68 173.27 75.50 172.88 67.30 C 170.71 67.06 168.53 66.82 166.35 66.57 C 166.19 63.97 166.05 61.36 165.91 58.76 C 167.81 58.76 169.71 58.77 171.62 58.77 C 171.63 55.32 171.45 51.83 171.74 48.39 Z" fill="#016f3d" />
<path d="M 172.15 49.37 C 176.23 48.96 180.32 48.77 184.39 48.28 C 184.37 51.78 184.38 55.28 184.37 58.78 C 186.67 58.77 188.97 58.77 191.26 58.76 C 191.28 62.04 191.28 65.32 191.29 68.59 C 188.99 68.59 186.69 68.58 184.40 68.57 C 184.34 76.98 184.33 85.40 184.40 93.81 C 180.13 93.78 175.87 93.78 171.61 93.79 C 171.61 85.39 171.62 76.99 171.61 68.59 C 169.31 68.59 167.01 68.60 164.71 68.61 C 164.70 65.32 164.70 62.04 164.71 58.76 L 165.91 58.76 C 166.05 61.36 166.19 63.97 166.35 66.57 C 168.53 66.82 170.71 67.06 172.88 67.30 C 173.27 75.50 172.85 83.68 173.16 91.88 C 176.36 91.86 179.56 91.86 182.75 91.87 C 183.26 84.06 182.09 75.96 183.33 68.26 C 185.36 67.17 187.67 66.54 189.84 65.80 C 187.52 63.64 185.18 61.51 182.83 59.39 C 182.60 56.74 183.47 52.48 181.74 50.37 C 178.98 49.87 176.04 50.01 173.24 50.02 C 173.54 53.55 173.71 57.08 173.60 60.63 C 172.00 56.73 171.67 53.56 172.15 49.37 Z" fill="#016e3c" />
<path d="M 41.92 58.06 C 39.47 58.97 37.43 59.39 35.05 57.97 C 37.40 56.92 39.56 57.30 41.92 58.06 Z" fill="#016e3d" />
<path d="M 67.46 58.76 C 71.36 61.06 73.33 65.56 73.42 69.98 C 73.54 77.34 73.38 84.71 73.46 92.07 C 69.68 92.02 65.91 91.95 62.13 91.85 C 61.93 86.56 62.02 81.29 62.11 76.00 C 62.01 73.27 62.34 70.85 60.34 68.70 C 58.29 67.25 56.38 66.81 53.89 67.37 C 51.53 68.67 50.23 71.28 50.30 73.94 C 50.20 80.57 50.36 87.20 50.27 93.83 C 46.07 93.77 41.88 93.78 37.68 93.79 C 37.58 86.25 37.87 78.68 37.58 71.15 C 37.46 67.71 34.64 67.50 32.01 66.69 C 31.80 65.76 31.59 64.82 31.37 63.89 L 31.09 64.20 L 30.88 64.43 C 29.00 66.41 27.45 68.31 27.23 71.16 C 26.86 78.13 27.18 85.17 27.10 92.16 C 23.45 92.05 19.80 91.94 16.15 91.83 C 16.02 85.02 15.39 78.43 16.82 71.69 C 17.62 68.02 16.98 64.51 16.27 60.88 C 20.06 61.05 23.82 61.44 27.59 61.77 L 29.02 61.27 C 28.65 61.72 28.28 62.17 27.91 62.62 C 32.27 62.35 36.25 60.65 40.50 60.03 C 43.36 60.94 44.71 64.28 48.40 63.76 L 48.96 63.71 C 51.40 61.98 53.16 59.61 56.09 58.45 C 59.62 57.11 64.05 56.95 67.46 58.76 Z" fill="#016e3d" />
<path d="M 93.63 58.15 C 98.32 57.02 103.48 57.21 107.98 59.02 C 115.63 62.11 121.05 69.55 120.04 78.01 C 119.12 87.82 109.43 94.75 100.00 94.73 C 90.36 95.14 80.85 88.78 79.02 79.03 C 77.29 69.30 84.38 60.44 93.63 58.15 Z" fill="#016e3c" />
<path d="M 209.99 57.48 C 214.51 57.08 218.11 58.96 221.88 61.15 L 221.64 58.78 C 225.87 58.76 230.09 58.77 234.32 58.78 C 234.40 70.46 234.31 82.14 234.36 93.82 C 230.11 93.78 225.86 93.79 221.61 93.79 C 221.67 92.82 221.72 91.86 221.78 90.89 C 218.08 93.25 214.56 95.14 209.98 94.69 C 200.38 94.35 193.28 85.28 193.55 76.00 C 193.41 66.75 200.41 57.84 209.99 57.48 Z" fill="#016e3c" />
<path d="M 308.41 61.25 C 308.41 60.42 308.40 59.60 308.40 58.77 C 312.50 58.77 316.60 58.78 320.71 58.78 C 320.72 70.45 320.75 82.12 320.69 93.79 C 316.59 93.78 312.49 93.78 308.38 93.83 C 308.38 92.86 308.38 91.89 308.38 90.92 C 305.05 92.90 302.04 94.79 298.00 94.71 C 290.24 95.24 283.19 89.34 281.03 82.11 C 278.07 72.91 282.27 62.16 291.46 58.51 C 297.51 56.25 303.27 57.67 308.41 61.25 Z" fill="#016e3c" />
<path d="M 35.05 57.97 C 33.88 60.18 32.46 60.65 30.07 60.15 C 31.36 58.64 33.14 58.11 35.05 57.97 Z" fill="#016e3d" />
<path d="M 35.05 57.97 C 37.43 59.39 39.47 58.97 41.92 58.06 L 42.71 58.20 C 43.03 59.91 44.56 60.67 46.17 60.11 C 46.92 61.33 47.69 62.53 48.40 63.76 C 44.71 64.28 43.36 60.94 40.50 60.03 C 36.25 60.65 32.27 62.35 27.91 62.62 C 28.28 62.17 28.65 61.72 29.02 61.27 L 30.07 60.15 C 32.46 60.65 33.88 60.18 35.05 57.97 Z" fill="#016e3c" />
<path d="M 42.71 58.20 C 44.11 58.38 45.45 58.80 46.17 60.11 C 44.56 60.67 43.03 59.91 42.71 58.20 Z" fill="#016e3d" />
<path d="M 377.04 57.80 C 380.20 57.91 383.99 58.34 385.02 61.91 C 388.65 72.55 392.27 83.14 395.98 93.75 C 383.44 93.74 370.89 93.83 358.35 93.70 C 362.17 82.99 365.68 72.10 369.56 61.43 C 370.54 58.50 374.43 58.06 377.04 57.80 Z" fill="#bd242a" />
<path d="M 14.52 58.78 C 18.46 58.82 22.50 58.51 26.42 58.96 L 27.59 61.77 C 23.82 61.44 20.06 61.05 16.27 60.88 C 16.98 64.51 17.62 68.02 16.82 71.69 C 15.39 78.43 16.02 85.02 16.15 91.83 C 19.80 91.94 23.45 92.05 27.10 92.16 L 27.11 93.75 C 22.91 93.79 18.71 93.78 14.50 93.81 C 14.47 82.13 14.45 70.46 14.52 58.78 Z" fill="#016e3c" />
<path d="M 145.75 58.78 C 149.97 58.75 154.18 58.75 158.39 58.78 C 158.45 70.45 158.42 82.13 158.40 93.80 C 154.18 93.78 149.96 93.80 145.75 93.78 C 145.74 82.11 145.72 70.45 145.75 58.78 Z" fill="#016e3b" />
<path d="M 261.84 58.78 C 266.06 58.75 270.28 58.76 274.49 58.77 C 274.57 70.45 274.50 82.14 274.54 93.82 C 270.30 93.78 266.07 93.79 261.83 93.75 C 261.88 82.10 261.86 70.44 261.84 58.78 Z" fill="#006f3c" />
<path d="M 188.11 60.55 C 189.89 60.12 189.98 62.74 188.18 62.44 C 187.37 61.84 187.35 61.21 188.11 60.55 Z" fill="#016f3d" />
<path d="M 373.42 62.36 C 375.40 61.08 378.60 61.24 380.68 62.19 C 384.96 71.06 387.28 81.02 390.77 90.26 C 381.74 90.25 372.70 90.27 363.66 90.20 C 365.53 83.99 367.78 77.90 369.78 71.74 C 370.93 68.61 371.84 65.29 373.42 62.36 Z" fill="#fefefd" />
<path d="M 42.20 63.36 C 42.75 63.74 42.75 63.74 42.20 63.36 Z" fill="#016e3c" />
<path d="M 30.88 64.43 L 31.09 64.20 L 31.37 63.89 C 31.59 64.82 31.80 65.76 32.01 66.69 C 29.92 67.84 28.58 69.20 27.23 71.16 C 27.45 68.31 29.00 66.41 30.88 64.43 Z" fill="#016e3c" />
<path d="M 307.13 70.92 C 309.16 72.98 309.15 76.10 308.62 78.76 C 307.24 82.15 303.69 84.50 299.99 84.22 C 297.56 83.82 295.43 82.55 293.72 80.80 C 292.73 76.88 292.73 73.60 294.82 70.04 C 298.34 67.40 304.27 67.15 307.13 70.92 Z" fill="#fdfdfd" />
<path d="M 95.60 68.79 C 99.42 67.42 104.01 67.85 106.36 71.55 C 108.82 75.17 107.97 79.91 104.49 82.51 C 101.03 85.19 96.38 84.66 93.39 81.55 C 89.63 77.89 90.97 71.06 95.60 68.79 Z" fill="#fcfdfd" />
<path d="M 210.53 68.73 C 214.41 67.34 219.01 68.01 221.23 71.82 C 223.82 75.59 222.27 81.21 218.16 83.16 C 214.90 85.09 210.89 84.32 208.34 81.64 C 204.44 77.96 205.86 71.08 210.53 68.73 Z" fill="#fdfefd" />
<path d="M 60.34 68.70 C 62.34 70.85 62.01 73.27 62.11 76.00 C 62.02 81.29 61.93 86.56 62.13 91.85 C 65.91 91.95 69.68 92.02 73.46 92.07 L 73.46 93.78 C 69.23 93.79 64.99 93.78 60.76 93.80 C 60.57 85.46 61.22 76.99 60.34 68.70 Z" fill="#016e3c" />
<path d="M 294.82 70.04 C 292.73 73.60 292.73 76.88 293.72 80.80 C 292.96 79.32 292.15 77.66 291.99 76.00 C 292.12 73.85 293.55 71.72 294.82 70.04 Z" fill="#80b59a" />
</svg>